<svg width="25" height="25" viewBox="0 0 25 25" fill="none" xmlns="http://www.w3.org/2000/svg">
<path d="M21.2978 9.56589L18.5156 8.17198M15.8589 14.1151C16.8042 11.7547 18.5156 8.17198 18.5156 8.17198L15.8589 14.1151ZM15.8589 14.1151C15.1164 15.969 14.197 18.6907 13.8292 19.7964C13.7348 20.08 13.8633 20.3894 14.1296 20.5228C14.3958 20.6561 14.7189 20.573 14.8874 20.3265C15.5439 19.3656 17.152 16.9889 18.1774 15.2766L15.8589 14.1151ZM15.8589 14.1151L18.1774 15.2766L15.8589 14.1151ZM18.1774 15.2766C19.4828 13.0967 21.2978 9.56589 21.2978 9.56589L18.1774 15.2766ZM21.2978 9.56589C24.3823 7.91901 23.2702 4.65349 22.2779 3.13541C22.2537 3.09831 22.1968 3.10766 22.1811 3.14918C21.9949 3.64333 21.3049 4.70876 20.0177 5.142C18.4829 5.65854 18.3988 7.43453 18.5156 8.17198L21.2978 9.56589Z" stroke="#A0AEC0" stroke-width="1.5"/>
<path d="M18.4014 7.03125C16.6925 5.24203 13.936 3.90625 11.1482 3.90625C5.99791 3.90625 1.82275 8.10359 1.82275 13.2812C1.82275 18.4589 5.99791 22.6562 11.1482 22.6562C13.1115 22.4095 12.9278 21.0084 12.1299 19.6957C11.6401 18.8901 12.2484 17.627 13.1842 17.5462C13.5046 17.5058 14.0884 17.5462 14.5158 17.5462L18.4014 7.03125ZM15.5656 8.59375C15.5656 9.275 15.0162 9.82729 14.3385 9.82729C13.6608 9.82729 13.1115 9.275 13.1115 8.59375C13.1115 7.9125 13.6608 7.36021 14.3385 7.36021C15.0162 7.36021 15.5656 7.9125 15.5656 8.59375ZM6.9763 10.3207C7.65395 10.3207 8.20333 9.76844 8.20333 9.08719C8.20333 8.40588 7.65395 7.85359 6.9763 7.85359C6.29864 7.85359 5.74926 8.40588 5.74926 9.08719C5.74926 9.76844 6.29864 10.3207 6.9763 10.3207ZM5.99468 16.7352C6.67234 16.7352 7.22171 16.1829 7.22171 15.5017C7.22171 14.8204 6.67234 14.2681 5.99468 14.2681C5.31697 14.2681 4.76763 14.8204 4.76763 15.5017C4.76763 16.1829 5.31697 16.7352 5.99468 16.7352Z" stroke="#A0AEC0" stroke-width="1.5"/>
</svg>
