<svg width="25" height="25" viewBox="0 0 25 25" fill="none" xmlns="http://www.w3.org/2000/svg">
<path d="M6.375 5.75C6.375 4.23122 7.60622 3 9.125 3H18.625C20.1438 3 21.375 4.23122 21.375 5.75V5.75C21.375 7.26878 20.1438 8.5 18.625 8.5H9.125C7.60622 8.5 6.375 7.26878 6.375 5.75V5.75Z" stroke="white" stroke-width="2"/>
<path d="M13.625 15C14.8676 15 15.875 16.0074 15.875 17.25L15.875 20.75C15.875 21.9926 14.8676 23 13.625 23V23C12.3824 23 11.375 21.9926 11.375 20.75L11.375 17.25C11.375 16.0074 12.3824 15 13.625 15V15Z" stroke="white" stroke-width="2"/>
<path d="M6.75 6H5C4.44772 6 4 6.44772 4 7V11.5C4 12.0523 4.44772 12.5 5 12.5H12.5C13.0523 12.5 13.5 12.9477 13.5 13.5V15" stroke="white" stroke-width="2"/>
</svg>
